<svg width="513" height="260" viewBox="0 0 513 260" fill="none" xmlns="http://www.w3.org/2000/svg">
<g clip-path="url(#clip0_574_46351)">
<path d="M512.432 0.225098H0.810547V259.825H512.432V0.225098Z" fill="#EF82EB"/>
<path d="M511.903 259.825C441.331 259.825 384.134 201.714 384.134 130.025V0.225098C454.706 0.225098 511.903 58.3367 511.903 130.025V259.825Z" fill="#FFC801"/>
<path d="M384.135 259.825C313.563 259.825 256.366 201.714 256.366 130.025V0.225098C326.921 0.225098 384.135 58.3367 384.135 130.025V259.825Z" fill="#5F01D1"/>
<path d="M256.366 130.025H0.810547V259.826H256.366V130.025Z" fill="#00B4D5"/>
<path d="M0.810547 259.825C0.810547 162.023 78.8622 82.7275 175.128 82.7275C175.128 180.53 97.076 259.808 0.810547 259.808V259.825Z" fill="#F8572B"/>
<path d="M46.1833 53.6288C50.9541 53.6288 54.8216 49.7037 54.8216 44.8618C54.8216 40.0199 50.9541 36.0947 46.1833 36.0947C41.4124 36.0947 37.5449 40.0199 37.5449 44.8618C37.5449 49.7037 41.4124 53.6288 46.1833 53.6288Z" fill="white"/>
<path d="M99.0353 53.6288C103.806 53.6288 107.674 49.7037 107.674 44.8618C107.674 40.0199 103.806 36.0947 99.0353 36.0947C94.2645 36.0947 90.397 40.0199 90.397 44.8618C90.397 49.7037 94.2645 53.6288 99.0353 53.6288Z" fill="white"/>
<path d="M151.905 53.6288C156.676 53.6288 160.543 49.7037 160.543 44.8618C160.543 40.0199 156.676 36.0947 151.905 36.0947C147.134 36.0947 143.267 40.0199 143.267 44.8618C143.267 49.7037 147.134 53.6288 151.905 53.6288Z" fill="white"/>
<path d="M213.395 44.8618C213.395 49.7058 209.528 53.6288 204.757 53.6288C199.986 53.6288 196.119 49.7058 196.119 44.8618C196.119 40.0177 199.986 36.0947 204.757 36.0947C209.528 36.0947 213.395 40.0177 213.395 44.8618Z" fill="white"/>
</g>
<defs>
<clipPath id="clip0_574_46351">
<rect width="511.621" height="259.6" fill="white" transform="translate(0.810547 0.225098)"/>
</clipPath>
</defs>
</svg>
