<svg width="259" height="260" viewBox="0 0 259 260" fill="none" xmlns="http://www.w3.org/2000/svg">
<g clip-path="url(#clip0_574_46345)">
<path d="M258.242 0.225098H2.47852V259.825H258.242V0.225098Z" fill="#5F01D1"/>
<path d="M129.628 259.587C129.628 259.587 140.837 130.315 0.536621 130.315C0.536621 130.315 16.0385 264.823 129.628 259.587Z" fill="#EF82EB"/>
<path d="M129.628 259.587C129.628 259.587 117.942 130.315 258.242 130.315C258.242 130.315 243.217 264.823 129.628 259.587Z" fill="#EF82EB"/>
<path d="M129.628 129.496C129.628 129.496 140.837 0.225098 0.536621 0.225098C0.536621 0.225098 16.0385 134.733 129.628 129.496Z" fill="#00CE7F"/>
<path d="M129.628 129.496C129.628 129.496 117.942 0.225098 258.242 0.225098C258.242 0.225098 243.217 134.733 129.628 129.496Z" fill="#00CE7F"/>
</g>
<defs>
<clipPath id="clip0_574_46345">
<rect width="257.705" height="259.6" fill="white" transform="translate(0.536621 0.225098)"/>
</clipPath>
</defs>
</svg>
