<svg width="256" height="260" viewBox="0 0 256 260" fill="none" xmlns="http://www.w3.org/2000/svg">
<g clip-path="url(#clip0_574_46361)">
<path d="M255.811 0.293457H0V259.757H255.811V0.293457Z" fill="#00B4D5"/>
<path d="M127.837 259.825C197.329 259.825 253.664 203.46 253.664 133.929C253.664 64.3984 197.329 8.03271 127.837 8.03271C58.345 8.03271 2.0105 64.3984 2.0105 133.929C2.0105 203.46 58.345 259.825 127.837 259.825Z" fill="#5F01D1"/>
<path d="M127.837 7.62354C127.837 7.62354 116.473 136.435 255.759 136.435C255.759 136.435 261.995 7.62354 127.837 7.62354Z" fill="#00CE7F"/>
<path d="M127.888 7.62354C127.888 7.62354 139.508 136.418 0.204455 136.418C0.204455 136.418 -6.33819 7.62354 127.888 7.62354Z" fill="#04A869"/>
<path d="M128.144 0.225098H117.802V18.4489H128.144V0.225098Z" fill="#04A869"/>
<path d="M138.469 0.225098H128.127V18.4489H138.469V0.225098Z" fill="#00CE7F"/>
</g>
<defs>
<clipPath id="clip0_574_46361">
<rect width="255.811" height="259.6" fill="white" transform="translate(0 0.225098)"/>
</clipPath>
</defs>
</svg>
