<?xml version="1.0" encoding="utf-8"?>
<!-- Generator: Adobe Illustrator 26.0.2, SVG Export Plug-In . SVG Version: 6.00 Build 0)  -->
<svg version="1.1" id="Layer_1" xmlns="http://www.w3.org/2000/svg" xmlns:xlink="http://www.w3.org/1999/xlink" x="0px" y="0px"
	 viewBox="0 0 792 512.85" style="enable-background:new 0 0 792 512.85;" xml:space="preserve">
<style type="text/css">
	.st0{fill:#FFFFFF;}
</style>
<g>
	<path d="M535.6,341.9H256.11c-47.01,0-85.45-38.45-85.45-85.48s38.44-85.48,85.45-85.48H535.6c47.01,0,85.45,38.45,85.45,85.48
		S582.61,341.9,535.6,341.9z"/>
	<g>
		<path class="st0" d="M613.05,256.43c0,42.95-34.84,77.8-77.78,77.8c-42.94,0-77.78-34.85-77.78-77.8s34.84-77.8,77.83-77.8
			c42.98,0,77.78,34.85,77.78,77.8"/>
		<g>
			<path class="st0" d="M221.65,250.51c2.13-6.87,8.43-11.41,16.05-11.41c7.62,0,12.73,4.12,14.34,11.41H221.65z M236.98,227.44
				c-16.52,0-28.55,12.12-28.55,28.79c0,8.48,3.17,16.24,8.9,21.78c5.44,5.26,12.73,8.15,20.73,8.15c0.38,0,0.71,0,1.09,0
				c8.62-0.28,19.31-6.25,22.87-12.74l1.18-2.13l-8.66-3.98l-1.14,1.14c-3.31,3.31-7.29,6.35-14.01,6.35h-0.24
				c-9.56-0.09-15.95-5.16-17.8-14.02h42.65l0.19-2.04c0.09-1.09,0.09-2.27,0.09-3.22c-0.24-16.72-11.22-27.99-27.41-27.99
				L236.98,227.44z"/>
			<path class="st0" d="M313.29,260.45c0,8.62-6.91,14.63-16.76,14.63c-6.77,0-11.5-2.6-11.5-6.39c0-1.56,0-6.25,14.58-8l13.68-1.61
				V260.45z M300.65,227.78c-11.93,0-22.39,6.01-25.47,14.63l-0.62,1.85l9.14,3.27l0.8-1.52c2.46-4.59,8.52-7.48,15.86-7.48
				c7.86,0,13.11,3.36,13.11,8.38c0,1.09-0.8,1.75-2.46,1.94l-12.73,1.52c-20.59,2.46-24.9,11.37-24.9,18.42
				c0,10.04,8.95,17.05,21.78,17.05c5.07,0,11.98-1.7,17.89-9.28l1.37,7.29h10.6v-35.71c0-12.17-9.8-20.32-24.33-20.32
				L300.65,227.78z"/>
			<path class="st0" d="M379.43,247.14l-9.94,2.13l-0.28-2.51c-0.76-6.44-5.4-7.81-9.14-7.81c-7.01,0-11.17,5.73-11.17,15.3v29.88
				h-12.31v-54.69h9.99l0.99,6.82c3.46-4.88,8.19-8.9,13.63-8.9c10.04,0,16.95,6.82,18.04,17.76L379.43,247.14z"/>
			<path class="st0" d="M438.08,249.51v34.66h-12.4v-33.86c0-7.34-4.12-11.74-11.08-11.74c-9.09,0-15.43,6.16-15.43,15.01v30.59
				h-12.31v-54.74h10.37l1.14,7.96c4.31-5.02,10.37-9.94,18.32-9.94c13.16,0,21.3,8.48,21.3,22.07"/>
		</g>
	</g>
	<g>
		<path d="M575.18,249.51v34.66h-13.3v-33.86c0-7.06-3.98-11.27-10.6-11.27c-7.43,0-12.97,4.26-14.53,10.7
			c-0.28,1.23-0.47,2.51-0.47,3.88v30.59h-13.21v-54.84h11.22l1.04,7.06c0.47-0.47,0.9-0.95,1.37-1.42
			c5.16-5.07,10.7-7.58,16.66-7.58c13.63,0,21.78,8.24,21.78,22.02"/>
		<polygon points="511.36,238.1 511.36,284.18 498.11,284.18 498.11,229.39 510.08,229.39 		"/>
	</g>
</g>
</svg>
