<svg fill="none" height="176" viewBox="0 0 362 176" width="362" xmlns="http://www.w3.org/2000/svg" xmlns:xlink="http://www.w3.org/1999/xlink"><clipPath id="a"><path d="m0 0h362v176h-362z"/></clipPath><g clip-path="url(#a)" fill="#000"><path d="m42.2891 58.582c15.1953 0 26.4453 4.8828 33.75 14.6485 5.7031 7.6172 8.5547 17.3633 8.5547 29.2385 0 12.851-3.2618 23.535-9.7852 32.051-7.6563 10-18.5742 15-32.7539 15-13.2422 0-23.6524-4.375-31.2305-13.125-6.75779-8.438-10.1367-19.102-10.1367-31.993 0-11.6403 2.89063-21.6012 8.67188-29.8825 7.42182-10.625 18.39842-15.9375 32.92972-15.9375zm1.1718 80.508c10.2735 0 17.6953-3.672 22.2657-11.016 4.6093-7.383 6.914-15.859 6.914-25.429 0-10.1177-2.6562-18.2622-7.9687-24.4341-5.2735-6.1718-12.5-9.2578-21.6797-9.2578-8.9063 0-16.1719 3.0664-21.7969 9.1992-5.625 6.0938-8.4375 15.0977-8.4375 27.0117 0 9.531 2.4024 17.578 7.207 24.141 4.8438 6.523 12.6758 9.785 23.4961 9.785zm88.1251-2.051c3.945 0 7.187-.41 9.726-1.23 4.532-1.524 8.243-4.454 11.133-8.789 2.305-3.477 3.965-7.93 4.981-13.36.586-3.242.879-6.25.879-9.023 0-10.6643-2.129-18.9456-6.387-24.844-4.219-5.8985-11.035-8.8477-20.449-8.8477h-20.684v66.0937zm-32.5196-76.1132h34.8636c11.836 0 21.015 4.1992 27.539 12.5976 5.82 7.5782 8.73 17.2852 8.73 29.1216 0 9.14-1.719 17.402-5.156 24.785-6.055 13.047-16.465 19.57-31.231 19.57h-34.7456zm119.2386 76.1132c3.945 0 7.187-.41 9.726-1.23 4.531-1.524 8.242-4.454 11.133-8.789 2.305-3.477 3.965-7.93 4.981-13.36.585-3.242.878-6.25.878-9.023 0-10.6643-2.128-18.9456-6.386-24.844-4.219-5.8985-11.035-8.8477-20.449-8.8477h-20.684v66.0937zm-32.52-76.1132h34.863c11.836 0 21.016 4.1992 27.54 12.5976 5.82 7.5782 8.73 17.2852 8.73 29.1216 0 9.14-1.719 17.402-5.156 24.785-6.055 13.047-16.465 19.57-31.231 19.57h-34.746zm93.809 58.3012c.273 4.882 1.426 8.847 3.457 11.894 3.867 5.703 10.683 8.555 20.449 8.555 4.375 0 8.359-.625 11.953-1.875 6.953-2.422 10.43-6.758 10.43-13.008 0-4.688-1.465-8.027-4.395-10.02-2.968-1.953-7.617-3.652-13.945-5.097l-11.66-2.637c-7.617-1.719-13.008-3.613-16.172-5.684-5.469-3.5933-8.203-8.9644-8.203-16.1128 0-7.7344 2.676-14.082 8.027-19.043 5.352-4.9609 12.93-7.4414 22.735-7.4414 9.023 0 16.679 2.1875 22.968 6.5625 6.328 4.3359 9.492 11.2891 9.492 20.8594h-10.957c-.585-4.6094-1.835-8.1445-3.75-10.6055-3.554-4.4922-9.589-6.7383-18.105-6.7383-6.875 0-11.816 1.4453-14.824 4.336-3.008 2.8906-4.512 6.25-4.512 10.0781 0 4.2188 1.758 7.3047 5.273 9.2578 2.305 1.25 7.52 2.8125 15.645 4.6875l12.07 2.7539c5.821 1.3278 10.313 3.1448 13.477 5.4488 5.469 4.024 8.203 9.864 8.203 17.52 0 9.531-3.477 16.348-10.43 20.449-6.914 4.102-14.961 6.153-24.14 6.153-10.703 0-19.082-2.735-25.137-8.204-6.055-5.429-9.023-12.793-8.906-22.089z"/><path d="m0 0h13v176h-13z" transform="matrix(-1 0 0 1 362 0)"/></g></svg>