<?xml version="1.0" encoding="utf-8"?>
<!-- Generator: Adobe Illustrator 23.0.4, SVG Export Plug-In . SVG Version: 6.00 Build 0)  -->
<svg version="1.1" id="Layer_1" xmlns="http://www.w3.org/2000/svg" xmlns:xlink="http://www.w3.org/1999/xlink" x="0px" y="0px"
	 viewBox="0 0 520.9 119.7" style="enable-background:new 0 0 520.9 119.7;" xml:space="preserve">
<style type="text/css">
	.st0{fill-rule:evenodd;clip-rule:evenodd;fill:#EA2328;}
	.st1{fill-rule:evenodd;clip-rule:evenodd;}
</style>
<title>Group</title>
<desc>Created with Sketch.</desc>
<path id="Logo-Icon" class="st0" d="M98.5,70.2c0,3.5-2.1,6.7-6.1,7.4c-6.9,1.2-21.5,2-33.7,2s-26.7-0.7-33.7-2c-4-0.7-6-3.9-6-7.4
	V47.1c0-3.5,2.7-6.8,6-7.4c2.1-0.4,6.8-0.7,10.6-0.7c1.4,0,2.5,1.1,2.6,2.8c0,0,0,16.1,0,16.1c7.2,0,13.4-0.4,20.6-0.4
	c7.2,0,13.4,0.4,20.6,0.4V41.8c0-1.7,1.1-2.8,2.5-2.8c3.7,0,8.5,0.3,10.6,0.7c3.3,0.6,6.1,3.9,6.1,7.4V70.2z M58.7,0.7
	C26.3,0.7,0,27.2,0,59.9S26.3,119,58.7,119s58.7-26.5,58.7-59.1S91.2,0.7,58.7,0.7L58.7,0.7z"/>
<g id="Logo-Type" transform="translate(150.220000, 27.826087)">
	<path id="Fill-1" class="st1" d="M29.5,60.4c-18.2,0-27.4-13.3-27.4-28c0-14.6,9.5-27.8,27.6-27.8c6.9,0,11.9,1.5,16,4.3l-5.2,8.6
		c-2.9-1.9-6.2-3.1-11-3.1c-9.8,0-15,7.9-15,17.7c0,10.1,5,18.5,15.2,18.5c5.7,0,9.2-2,12-4.1l4.8,8.3
		C43.7,57.2,37.2,60.4,29.5,60.4"/>
	<path id="Fill-3" class="st1" d="M68.4,60.4c-13.6,0-19.6-10.4-19.6-20.6c0-10.2,5.9-20.8,19.5-20.8c13.6,0,19.8,10.3,19.8,20.5
		C88.1,49.5,82.1,60.4,68.4,60.4 M68.1,27.2c-5.9,0-7.7,5-7.7,12.2c0,7.3,2.3,12.5,8.1,12.5c5.9,0,7.9-4.9,7.9-12.2
		S74.1,27.2,68.1,27.2"/>
	<path id="Fill-5" class="st1" d="M105.4,19.9v25.3c0,3.9,1.3,5.8,5.1,5.8c3.9,0,6.9-3.8,7.7-4.8V19.9h11v27.9
		c0,5.2,0.6,9.2,1.1,11.6h-10.8c-0.3-1.1-0.7-3.6-0.8-5.2c-2.1,2.7-6.1,6.2-12.5,6.2c-8.6,0-11.7-5.6-11.7-12.8V19.9H105.4z"/>
	<path id="Fill-7" class="st1" d="M156.1,60.4c-12.6,0-20.3-8.3-20.3-20.7c0-13.3,8.7-20.8,20.7-20.8c6.3,0,10.1,1.9,11.9,3.1
		l-3.5,7.6c-1.7-1.1-4.2-2.3-8.1-2.3c-6.1,0-9.4,4.8-9.4,12c0,7.2,3.1,12.4,9.6,12.4c4.4,0,7.1-1.6,8.3-2.3l3.3,7.4
		C166.8,58,163.2,60.4,156.1,60.4"/>
	<path id="Fill-9" class="st1" d="M198.1,59.4V34.1c0-3.9-1.3-5.8-5-5.8c-4,0-7,3.7-7.8,4.8v26.4h-11V1.1h11v23.5
		c2-2.2,5.7-5.7,12.1-5.7c8.6,0,11.7,5.5,11.7,12.8v27.6H198.1z"/>
	<path id="Fill-11" class="st1" d="M229,1.1V23c1.8-1.8,5.2-4.1,9.5-4.1c9.7,0,16.5,6.7,16.5,20.4c0,13.6-9,21-20.8,21
		c-8.9,0-14.3-2.2-16.2-3.2V1.1H229z M229,50.8c0.7,0.2,2.4,0.8,5.2,0.8c5.7,0,9.1-4.2,9.1-12.3c0-7.3-2.4-11.6-8-11.6
		c-3.3,0-5.7,2.1-6.4,2.9V50.8z"/>
	<path id="Fill-13" class="st1" d="M282.3,59.4c-0.3-1-0.6-3-0.7-4.2c-1.7,2.1-5.4,5.2-10.9,5.2c-6.6,0-11.8-4-11.8-11.1
		c0-10.3,10.4-14,20.8-14h1.3V33c0-3.3-1.3-5.3-6.2-5.3c-5,0-8.4,2.6-9.9,3.7l-4.7-6.8c2.4-2.1,7.5-5.7,15.9-5.7
		c10.8,0,15.9,4.2,15.9,14.7v13.9c0,5.4,0.6,9.3,1.1,11.9H282.3z M281.1,42h-1.3c-6,0-10.2,1.8-10.2,6.3c0,2.8,2.2,4,4.6,4
		c3.7,0,5.8-2.1,6.9-3.3V42z"/>
	<path id="Fill-15" class="st1" d="M311.8,60.4c-7,0-11.5-2.1-13.9-3.7l3.7-7.8c1.5,1,5.3,3.2,9.6,3.2c4,0,6.3-1.1,6.3-3.4
		c0-2.6-4.4-3.3-9.9-6c-5.4-2.6-8.5-5.7-8.5-11.6c0-7.5,5.8-12.2,14.7-12.2c6.7,0,10.8,2.1,12.6,3.1l-3.8,7.6
		c-1.5-1-4.6-2.5-8.3-2.5c-3.7,0-5.3,1.3-5.3,3.3c0,2.6,3.6,3.2,8,5c6.1,2.5,10.5,5.4,10.5,12.1C327.4,56,321.5,60.4,311.8,60.4"/>
	<path id="Fill-17" class="st1" d="M352.9,52.1c5.3,0,8.2-1.7,10.1-2.7l3.5,7.1c-2.6,1.5-6.6,3.8-14.6,3.8
		c-13.1,0-20.5-8.3-20.5-20.9c0-12.5,8.6-20.5,19.4-20.5c12.3,0,18.2,8.6,16.9,23.4h-24.5C343.6,48.2,346.6,52.1,352.9,52.1
		L352.9,52.1z M357,34.8c-0.1-4.4-1.8-7.9-6.5-7.9c-4.4,0-6.8,2.8-7.5,7.9H357z"/>
</g>
</svg>
